<svg id="visual" viewBox="0 0 1920 1080" width="1920" height="1080" xmlns="http://www.w3.org/2000/svg" xmlns:xlink="http://www.w3.org/1999/xlink" version="1.1"><path d="M0 195L29.2 180.7C58.3 166.3 116.7 137.7 174.8 141.3C233 145 291 181 349.2 204.3C407.3 227.7 465.7 238.3 523.8 243.7C582 249 640 249 698.2 238.3C756.3 227.7 814.7 206.3 872.8 179.3C931 152.3 989 119.7 1047.2 130.3C1105.3 141 1163.7 195 1221.8 209.5C1280 224 1338 199 1396.2 173.8C1454.3 148.7 1512.7 123.3 1570.8 125.2C1629 127 1687 156 1745.2 165C1803.3 174 1861.7 163 1890.8 157.5L1920 152L1920 0L1890.8 0C1861.7 0 1803.3 0 1745.2 0C1687 0 1629 0 1570.8 0C1512.7 0 1454.3 0 1396.2 0C1338 0 1280 0 1221.8 0C1163.7 0 1105.3 0 1047.2 0C989 0 931 0 872.8 0C814.7 0 756.3 0 698.2 0C640 0 582 0 523.8 0C465.7 0 407.3 0 349.2 0C291 0 233 0 174.8 0C116.7 0 58.3 0 29.2 0L0 0Z" fill="#8ebbff"></path><path d="M0 325L29.2 316C58.3 307 116.7 289 174.8 289C233 289 291 307 349.2 361C407.3 415 465.7 505 523.8 524.8C582 544.7 640 494.3 698.2 478.2C756.3 462 814.7 480 872.8 471C931 462 989 426 1047.2 424.2C1105.3 422.3 1163.7 454.7 1221.8 454.7C1280 454.7 1338 422.3 1396.2 384.5C1454.3 346.7 1512.7 303.3 1570.8 296.2C1629 289 1687 318 1745.2 352.2C1803.3 386.3 1861.7 425.7 1890.8 445.3L1920 465L1920 150L1890.8 155.5C1861.7 161 1803.3 172 1745.2 163C1687 154 1629 125 1570.8 123.2C1512.7 121.3 1454.3 146.7 1396.2 171.8C1338 197 1280 222 1221.8 207.5C1163.7 193 1105.3 139 1047.2 128.3C989 117.7 931 150.3 872.8 177.3C814.7 204.3 756.3 225.7 698.2 236.3C640 247 582 247 523.8 241.7C465.7 236.3 407.3 225.7 349.2 202.3C291 179 233 143 174.8 139.3C116.7 135.7 58.3 164.3 29.2 178.7L0 193Z" fill="#7db0ff"></path><path d="M0 401L29.2 393.7C58.3 386.3 116.7 371.7 174.8 378.8C233 386 291 415 349.2 467.3C407.3 519.7 465.7 595.3 523.8 615.2C582 635 640 599 698.2 581C756.3 563 814.7 563 872.8 554C931 545 989 527 1047.2 527C1105.3 527 1163.7 545 1221.8 545C1280 545 1338 527 1396.2 485.5C1454.3 444 1512.7 379 1570.8 368.2C1629 357.3 1687 400.7 1745.2 440.3C1803.3 480 1861.7 516 1890.8 534L1920 552L1920 463L1890.8 443.3C1861.7 423.7 1803.3 384.3 1745.2 350.2C1687 316 1629 287 1570.8 294.2C1512.7 301.3 1454.3 344.7 1396.2 382.5C1338 420.3 1280 452.7 1221.8 452.7C1163.7 452.7 1105.3 420.3 1047.2 422.2C989 424 931 460 872.8 469C814.7 478 756.3 460 698.2 476.2C640 492.3 582 542.7 523.8 522.8C465.7 503 407.3 413 349.2 359C291 305 233 287 174.8 287C116.7 287 58.3 305 29.2 314L0 323Z" fill="#6ba6ff"></path><path d="M0 735L29.2 753C58.3 771 116.7 807 174.8 805.3C233 803.7 291 764.3 349.2 764.3C407.3 764.3 465.7 803.7 523.8 819.8C582 836 640 829 698.2 827.3C756.3 825.7 814.7 829.3 872.8 820.3C931 811.3 989 789.7 1047.2 793.2C1105.3 796.7 1163.7 825.3 1221.8 825.3C1280 825.3 1338 796.7 1396.2 769.7C1454.3 742.7 1512.7 717.3 1570.8 710.2C1629 703 1687 714 1745.2 721.2C1803.3 728.3 1861.7 731.7 1890.8 733.3L1920 735L1920 550L1890.8 532C1861.7 514 1803.3 478 1745.2 438.3C1687 398.7 1629 355.3 1570.8 366.2C1512.7 377 1454.3 442 1396.2 483.5C1338 525 1280 543 1221.8 543C1163.7 543 1105.3 525 1047.2 525C989 525 931 543 872.8 552C814.7 561 756.3 561 698.2 579C640 597 582 633 523.8 613.2C465.7 593.3 407.3 517.7 349.2 465.3C291 413 233 384 174.8 376.8C116.7 369.7 58.3 384.3 29.2 391.7L0 399Z" fill="#589bff"></path><path d="M0 822L29.2 847.2C58.3 872.3 116.7 922.7 174.8 926.2C233 929.7 291 886.3 349.2 882.7C407.3 879 465.7 915 523.8 931.3C582 947.7 640 944.3 698.2 937.2C756.3 930 814.7 919 872.8 910C931 901 989 894 1047.2 899.5C1105.3 905 1163.7 923 1221.8 923C1280 923 1338 905 1396.2 894.2C1454.3 883.3 1512.7 879.7 1570.8 867C1629 854.3 1687 832.7 1745.2 830.8C1803.3 829 1861.7 847 1890.8 856L1920 865L1920 733L1890.8 731.3C1861.7 729.7 1803.3 726.3 1745.2 719.2C1687 712 1629 701 1570.8 708.2C1512.7 715.3 1454.3 740.7 1396.2 767.7C1338 794.7 1280 823.3 1221.8 823.3C1163.7 823.3 1105.3 794.7 1047.2 791.2C989 787.7 931 809.3 872.8 818.3C814.7 827.3 756.3 823.7 698.2 825.3C640 827 582 834 523.8 817.8C465.7 801.7 407.3 762.3 349.2 762.3C291 762.3 233 801.7 174.8 803.3C116.7 805 58.3 769 29.2 751L0 733Z" fill="#508ceb"></path><path d="M0 930L29.2 944.3C58.3 958.7 116.7 987.3 174.8 987.3C233 987.3 291 958.7 349.2 960.5C407.3 962.3 465.7 994.7 523.8 1007.2C582 1019.7 640 1012.3 698.2 1010.5C756.3 1008.7 814.7 1012.3 872.8 1010.7C931 1009 989 1002 1047.2 1002C1105.3 1002 1163.7 1009 1221.8 1007.2C1280 1005.3 1338 994.7 1396.2 991.2C1454.3 987.7 1512.7 991.3 1570.8 982.3C1629 973.3 1687 951.7 1745.2 942.7C1803.3 933.7 1861.7 937.3 1890.8 939.2L1920 941L1920 863L1890.8 854C1861.7 845 1803.3 827 1745.2 828.8C1687 830.7 1629 852.3 1570.8 865C1512.7 877.7 1454.3 881.3 1396.2 892.2C1338 903 1280 921 1221.8 921C1163.7 921 1105.3 903 1047.2 897.5C989 892 931 899 872.8 908C814.7 917 756.3 928 698.2 935.2C640 942.3 582 945.7 523.8 929.3C465.7 913 407.3 877 349.2 880.7C291 884.3 233 927.7 174.8 924.2C116.7 920.7 58.3 870.3 29.2 845.2L0 820Z" fill="#477dd7"></path><path d="M0 1081L29.2 1081C58.3 1081 116.7 1081 174.8 1081C233 1081 291 1081 349.2 1081C407.3 1081 465.7 1081 523.8 1081C582 1081 640 1081 698.2 1081C756.3 1081 814.7 1081 872.8 1081C931 1081 989 1081 1047.2 1081C1105.3 1081 1163.7 1081 1221.8 1081C1280 1081 1338 1081 1396.2 1081C1454.3 1081 1512.7 1081 1570.8 1081C1629 1081 1687 1081 1745.2 1081C1803.3 1081 1861.7 1081 1890.8 1081L1920 1081L1920 939L1890.8 937.2C1861.7 935.3 1803.3 931.7 1745.2 940.7C1687 949.7 1629 971.3 1570.8 980.3C1512.7 989.3 1454.3 985.7 1396.2 989.2C1338 992.7 1280 1003.3 1221.8 1005.2C1163.7 1007 1105.3 1000 1047.2 1000C989 1000 931 1007 872.8 1008.7C814.7 1010.3 756.3 1006.7 698.2 1008.5C640 1010.3 582 1017.7 523.8 1005.2C465.7 992.7 407.3 960.3 349.2 958.5C291 956.7 233 985.3 174.8 985.3C116.7 985.3 58.3 956.7 29.2 942.3L0 928Z" fill="#3e6fc3"></path></svg>